<svg width="165" height="129" viewBox="0 0 165 129" fill="none" xmlns="http://www.w3.org/2000/svg">
<path d="M91.4693 30.9689C91.6582 30.9689 91.8471 30.7804 91.973 30.5291C92.099 30.3405 92.2879 30.0263 92.5398 29.8378C92.7917 29.6493 92.9806 29.7121 93.1695 29.775C93.2325 29.8378 93.2955 29.9007 93.4214 30.0263C93.5474 30.152 93.6733 30.4034 93.7363 30.7176C93.7993 30.8433 93.7993 30.969 93.7993 31.0318C93.7993 31.1575 93.8622 31.2203 93.8622 31.4088V31.5345V31.5974H93.7363C93.6104 31.5974 93.4844 31.5974 93.3585 31.5345C93.1695 31.5345 92.9806 31.4717 92.7917 31.4088C92.4768 31.346 92.2879 31.2203 92.036 31.0946C91.8471 31.0946 91.6582 30.9061 91.4693 30.9689C91.2803 30.9689 91.1544 31.1575 91.0914 31.5345C91.0285 31.9116 91.2803 32.54 91.8471 33.0427C92.099 33.294 92.4768 33.4826 92.8547 33.6082C93.0436 33.6711 93.1695 33.7339 93.3585 33.7968L93.4844 33.8596L93.7363 33.9224C93.8623 33.9224 94.0512 33.9853 94.2401 33.9853C94.8698 34.0481 95.5625 33.7968 96.0033 33.2312C96.1923 32.9798 96.3182 32.6028 96.3812 32.2258C96.3812 32.0372 96.3812 31.8487 96.3812 31.6602V31.4088V31.2203C96.3812 31.0318 96.3182 30.7804 96.2552 30.5919C96.1923 30.4034 96.1293 30.2149 96.0663 29.9635C95.8774 29.4608 95.6255 28.9581 95.2477 28.581C94.8698 28.1411 94.3031 27.7641 93.6733 27.7012C92.4768 27.5127 91.4693 28.2668 91.1544 28.9581C90.8395 29.6493 90.9025 30.2149 90.9655 30.5919C91.0914 30.8433 91.2803 30.9689 91.4693 30.9689Z" fill="black"/>
<path d="M108.958 10.5979C109.146 10.5979 109.335 10.4093 109.461 10.158C109.587 9.96945 109.776 9.65525 110.028 9.46673C110.28 9.27821 110.469 9.34105 110.658 9.40389C110.721 9.46673 110.784 9.52957 110.91 9.65525C111.036 9.78093 111.162 10.0323 111.225 10.3465C111.288 10.4722 111.288 10.5979 111.288 10.6607C111.288 10.7864 111.351 10.8492 111.351 11.0377V11.1634V11.2263H111.225C111.099 11.2263 110.973 11.2263 110.847 11.1634C110.658 11.1634 110.469 11.1006 110.28 11.0377C109.965 10.9749 109.776 10.8492 109.524 10.7235C109.335 10.7235 109.146 10.535 108.958 10.5979C108.769 10.5979 108.643 10.7864 108.58 11.1634C108.517 11.5405 108.769 12.1689 109.335 12.6716C109.587 12.9229 109.965 13.1115 110.343 13.2372C110.532 13.3 110.658 13.3628 110.847 13.4257L110.973 13.4885L111.225 13.5514C111.351 13.5514 111.539 13.6142 111.728 13.6142C112.358 13.677 113.051 13.4257 113.492 12.8601C113.681 12.6087 113.806 12.2317 113.869 11.8547C113.869 11.6661 113.869 11.4776 113.869 11.2891V11.0377V10.8492C113.869 10.6607 113.806 10.4093 113.744 10.2208C113.681 10.0323 113.618 9.84377 113.555 9.59241C113.366 9.08969 113.114 8.58696 112.736 8.20992C112.358 7.77004 111.791 7.393 111.162 7.33016C109.965 7.14163 108.958 7.89572 108.643 8.58696C108.328 9.27821 108.391 9.84377 108.454 10.2208C108.58 10.4722 108.769 10.5979 108.958 10.5979Z" fill="#E2E2E2"/>
<path d="M66.3652 33.9795C66.5081 33.981 66.6921 34.0565 66.9092 34.249C67.1393 34.4531 67.3431 34.7339 67.4814 34.9824L67.4912 35L67.5 35.0137C67.4909 35.0114 67.4817 35.0101 67.4727 35.0078L67.4531 35.0029L67.4336 35L67.3311 34.9785C67.0915 34.9186 66.8472 34.7862 66.6338 34.5732L66.5762 34.5166L66.5332 34.4951C66.529 34.4885 66.523 34.4793 66.5156 34.4658C66.5043 34.4452 66.492 34.4225 66.4756 34.3896C66.4288 34.2964 66.3965 34.2048 66.3789 34.125C66.3648 34.0609 66.3636 34.0124 66.3652 33.9795Z" fill="white" stroke="white"/>
<path d="M66.0272 34.6143C66.0272 34.6143 66.0272 34.5514 65.9643 34.3629C65.9643 34.3001 65.9643 34.1744 65.9643 34.1115C65.9643 33.9859 66.0272 33.923 66.1532 33.8602C66.2161 33.7974 66.2791 33.8602 66.3421 33.923C66.4051 33.9859 66.468 34.0487 66.531 34.1115C66.657 34.2372 66.9718 34.4258 67.2237 34.6771C67.2867 34.74 67.3497 34.8028 67.3497 34.8656C67.4126 34.9285 67.4126 34.9913 67.4756 35.0542L67.5386 35.1798C67.5386 35.1798 67.6016 35.3055 67.6016 35.2427C67.6016 35.2427 67.4756 35.2427 67.4126 35.2427C67.3497 35.2427 67.2867 35.2427 67.1607 35.2427C66.9089 35.2427 66.594 35.1798 66.4051 35.117C66.2161 34.9913 66.0902 34.8656 66.0272 34.8028C66.0902 34.6771 66.0272 34.6143 66.0272 34.6143C66.0272 34.6143 66.0272 34.6771 66.0902 34.8028C66.1532 34.9285 66.2161 35.0542 66.4051 35.2427C66.594 35.4312 66.7829 35.6197 67.0978 35.7454C67.1607 35.8082 67.2237 35.8082 67.3497 35.8082C67.4756 35.8082 67.4756 35.8711 67.6645 35.8711C67.9794 35.9339 68.3572 35.8082 68.4202 35.494C68.4202 35.4312 68.4202 35.3055 68.4202 35.2427C68.4202 35.1798 68.4202 35.0542 68.3572 34.9913C68.3572 34.8656 68.2943 34.8656 68.2943 34.8028L68.2313 34.6143C68.1683 34.5514 68.1683 34.4258 68.1053 34.3629C68.0424 34.3001 68.0424 34.1744 67.9794 34.1115C67.7275 33.6717 67.4126 33.2318 66.8459 33.0433C66.594 32.9804 66.2791 32.9176 66.0272 33.0433C65.7753 33.1061 65.5234 33.4203 65.5234 33.6717C65.5234 33.8602 65.5234 34.0487 65.5864 34.1744C65.6494 34.3001 65.6494 34.3629 65.7124 34.4258C65.9643 34.5514 66.0272 34.6143 66.0272 34.6143Z" fill="black"/>
<mask id="path-5-inside-1_6071_53610" fill="white">
<path d="M61.4945 24.3079C61.2426 22.7998 62.4391 21.7315 64.0764 21.92C65.7137 22.1714 67.5399 23.6795 68.1067 25.2505C68.6734 26.8216 67.7918 28.204 66.2805 28.204C65.9026 28.204 65.5248 28.1412 65.2099 28.2669C64.5172 28.4554 64.3913 29.3352 64.7061 30.1521C65.021 30.969 65.6507 31.7231 66.2805 32.4772"/>
</mask>
<path d="M61.4945 24.3079C61.2426 22.7998 62.4391 21.7315 64.0764 21.92C65.7137 22.1714 67.5399 23.6795 68.1067 25.2505C68.6734 26.8216 67.7918 28.204 66.2805 28.204C65.9026 28.204 65.5248 28.1412 65.2099 28.2669C64.5172 28.4554 64.3913 29.3352 64.7061 30.1521C65.021 30.969 65.6507 31.7231 66.2805 32.4772" fill="white"/>
<path d="M64.0764 21.92L64.2281 20.9316L64.2095 20.9287L64.1908 20.9266L64.0764 21.92ZM65.2099 28.2669L65.4725 29.2318L65.5276 29.2168L65.5806 29.1956L65.2099 28.2669ZM61.4945 24.3079L62.4808 24.1432C62.4075 23.7041 62.5437 23.4061 62.7519 23.2156C62.9757 23.0109 63.3806 22.8465 63.962 22.9134L64.0764 21.92L64.1908 20.9266C63.1349 20.805 62.1229 21.0805 61.402 21.7398C60.6657 22.4134 60.3296 23.4036 60.5082 24.4727L61.4945 24.3079ZM64.0764 21.92L63.9246 22.9084C64.5205 22.9999 65.2239 23.339 65.8561 23.8613C66.4878 24.3833 66.9581 25.0136 67.166 25.5899L68.1067 25.2505L69.0473 24.9112C68.6885 23.9165 67.9623 23.0072 67.1299 22.3195C66.298 21.6321 65.2696 21.0915 64.2281 20.9316L64.0764 21.92ZM68.1067 25.2505L67.166 25.5899C67.3611 26.1305 67.2776 26.5419 67.1247 26.7867C66.9788 27.0203 66.7103 27.204 66.2805 27.204V28.204V29.204C67.3619 29.204 68.29 28.6965 68.8211 27.8461C69.3451 27.007 69.4191 25.9416 69.0473 24.9112L68.1067 25.2505ZM66.2805 28.204V27.204C66.2103 27.204 66.1365 27.2011 66.04 27.1971C65.9509 27.1933 65.8369 27.1883 65.7216 27.1883C65.4956 27.1883 65.1722 27.2052 64.8392 27.3381L65.2099 28.2669L65.5806 29.1956C65.5624 29.2029 65.5855 29.1883 65.7216 29.1883C65.7873 29.1883 65.8582 29.1912 65.9561 29.1953C66.0465 29.1991 66.1617 29.204 66.2805 29.204V28.204ZM65.2099 28.2669L64.9473 27.302C64.1642 27.5151 63.7456 28.1351 63.6051 28.7518C63.4719 29.3368 63.5631 29.967 63.773 30.5117L64.7061 30.1521L65.6392 29.7925C65.5343 29.5203 65.531 29.3021 65.5552 29.1959C65.5658 29.1494 65.5748 29.1525 65.5541 29.1767C65.5277 29.2075 65.4922 29.2264 65.4725 29.2318L65.2099 28.2669ZM64.7061 30.1521L63.773 30.5117C64.159 31.513 64.9112 32.3977 65.5129 33.1182L66.2805 32.4772L67.048 31.8362C66.3902 31.0485 65.883 30.425 65.6392 29.7925L64.7061 30.1521Z" fill="white" mask="url(#path-5-inside-1_6071_53610)"/>
<path d="M66.2786 32.5406C66.2786 32.5406 66.2157 32.4778 66.1527 32.4149C66.0897 32.2893 65.9638 32.1636 65.8378 31.9751C65.7119 31.7865 65.5859 31.5352 65.397 31.2838C65.2711 30.9696 65.0821 30.6554 64.9562 30.3412C64.8302 29.9642 64.7673 29.5871 64.8932 29.2729C64.9562 29.0844 65.0192 29.0216 65.1451 28.9587C65.2081 28.8959 65.334 28.8959 65.5859 28.8959C65.8378 28.8959 66.1527 28.9587 66.5305 28.8959C66.9084 28.833 67.2862 28.7074 67.6011 28.5188C68.2938 28.079 68.7346 27.262 68.7346 26.508C68.7346 26.1937 68.7346 25.8795 68.6086 25.5653C68.5457 25.2511 68.4197 24.9998 68.2938 24.7484C67.9789 24.12 67.4751 23.6173 67.0343 23.1774C66.5305 22.7375 66.0267 22.4233 65.46 22.172C64.9562 21.9206 64.3894 21.7949 63.8856 21.7949C63.3819 21.7949 62.8781 21.8578 62.5002 22.1091C62.1224 22.2976 61.8075 22.6118 61.6816 22.9261C61.4927 23.2403 61.4297 23.4916 61.4297 23.743C61.4297 23.9943 61.4297 24.1829 61.4297 24.2457C61.4297 24.3714 61.4297 24.4342 61.4927 24.4342C61.4927 24.4342 61.4927 24.3714 61.4927 24.2457C61.4927 24.12 61.4927 23.9315 61.5556 23.743C61.6186 23.5545 61.6816 23.2403 61.8705 22.9889C62.0594 22.7375 62.3113 22.4862 62.6892 22.3605C63.067 22.2348 63.5078 22.172 63.9486 22.2348C64.3894 22.2976 64.8932 22.4862 65.334 22.7375C66.2157 23.2403 67.0973 24.12 67.6011 25.1883C67.727 25.3768 67.79 25.6282 67.79 25.8167C67.853 26.0052 67.853 26.2566 67.79 26.4451C67.727 26.9478 67.4122 27.3249 67.0973 27.5762C66.9084 27.7019 66.7194 27.7648 66.4676 27.7648C66.2786 27.8276 66.0267 27.7648 65.7119 27.8276C65.397 27.8276 65.0192 27.8904 64.6413 28.1418C64.3265 28.3932 64.1375 28.7702 64.1375 29.0844C64.0746 29.7128 64.2635 30.2155 64.5154 30.5926C64.9562 31.3467 65.46 31.7865 65.8378 32.1007C66.0897 32.3521 66.2786 32.5406 66.2786 32.5406Z" fill="black"/>
<path d="M92.6661 127.177C117.792 127.177 138.196 120.641 138.196 113.163C138.196 105.685 117.855 99.6527 92.7291 99.5898C67.6027 99.5898 47.1994 105.56 47.1994 113.038C47.1364 120.516 67.4768 127.114 92.6661 127.177Z" fill="black"/>
<path d="M53.1186 23.8057C52.9297 23.8057 52.5518 25.5652 52.6778 28.8329C52.8037 30.4667 53.0556 32.4776 53.6854 34.7399C54.3151 37.0021 55.1967 39.5786 56.7081 42.155C57.4008 43.4747 58.3454 44.7315 59.4159 46.0511C60.4865 47.308 61.8089 48.5019 63.3203 49.5074C64.8316 50.5128 66.7208 51.3297 68.7989 51.3926C70.8771 51.5183 73.0811 50.8899 74.8444 49.5074C76.6076 48.1877 77.8671 46.3025 78.7487 44.2916C79.6303 42.2807 80.1341 40.0813 80.386 37.8819C80.6379 35.6825 80.5749 33.3574 80.3231 31.0951C80.0082 28.8329 79.5044 26.5078 78.7487 24.2455C78.119 22.4232 77.3003 20.7265 76.4187 19.0926C75.4741 17.4588 74.4036 15.8878 73.1441 14.3796C71.5698 12.5572 69.6806 10.9862 67.4765 9.91793C65.2724 8.84964 62.8165 8.4726 60.4235 8.7868C58.0305 9.16384 55.9524 10.1693 54.1891 11.5518C52.4889 12.9343 51.0405 14.631 50.0959 16.5162C49.0883 18.3385 48.5215 20.3494 48.2067 22.2346C47.8918 24.1199 47.8918 26.0051 47.9548 27.7646C48.0807 29.5241 48.3326 31.2208 48.6475 32.8547C48.8364 33.6716 49.0253 34.4257 49.2142 35.1798C49.4661 35.9338 49.6551 36.6879 49.907 37.3792C50.9145 40.207 52.4259 42.5321 53.8743 44.3545C55.3856 46.1768 56.96 47.4965 58.3454 48.4391C61.1162 50.2615 63.0054 50.5757 63.0054 50.3871C63.0684 50.1986 61.4311 49.5702 58.9751 47.6222C57.7786 46.6167 56.3932 45.2971 55.0708 43.4747C53.7483 41.6523 52.4889 39.4529 51.6072 36.7508C51.3553 36.1224 51.2294 35.3683 50.9775 34.677C50.7886 33.923 50.6626 33.2317 50.5367 32.4148C50.2848 30.9066 50.0329 29.2728 49.9699 27.6389C49.844 24.3084 50.2848 20.7265 52.048 17.5216C52.9297 15.9506 54.1262 14.5053 55.6375 13.3113C57.0859 12.1802 58.9121 11.3004 60.8013 11.0491C62.6905 10.7977 64.7057 11.1119 66.4689 11.9917C68.2952 12.8714 69.9325 14.1911 71.3808 15.8878C72.5144 17.2074 73.5219 18.6527 74.3406 20.1609C75.2222 21.6691 75.9149 23.3029 76.5447 24.9368C77.2374 27.0105 77.8041 29.1471 78.056 31.2837C78.3079 33.4202 78.3709 35.494 78.182 37.5677C77.993 39.5786 77.5522 41.5266 76.7966 43.2862C76.0409 45.0457 74.9703 46.6167 73.6479 47.6222C72.3254 48.6904 70.6881 49.1932 69.0508 49.1303C67.4135 49.0675 65.9022 48.4391 64.5168 47.6222C63.1313 46.8052 61.9978 45.7369 60.9273 44.6058C59.9197 43.4747 59.0381 42.2807 58.2824 41.0868C56.771 38.6988 55.8264 36.3109 55.1337 34.1743C54.441 32.0377 54.0632 30.1525 53.8113 28.5815C53.2445 25.5652 53.3075 23.8057 53.1186 23.8057Z" fill="black"/>
<path d="M93.6934 90.7002C94.9158 96.2504 97.5547 101.568 100.194 106.814C102.993 112.377 105.792 117.858 107.037 123.559V123.56C107.086 123.826 107.213 124.06 107.319 124.233C107.374 124.322 107.431 124.41 107.478 124.481C107.519 124.545 107.551 124.598 107.578 124.645C102.235 126.611 97.3241 126.657 93.7529 126.21C91.9644 125.986 90.5142 125.639 89.5186 125.349C89.021 125.204 88.6373 125.073 88.3828 124.979C88.3476 124.967 88.3152 124.954 88.2852 124.942C87.8677 120.622 86.5028 113.882 84.8135 110.011C84.2244 108.66 83.5526 107.325 82.8799 106C82.2051 104.671 81.5296 103.354 80.9209 102.022C79.8111 99.5945 78.9429 97.1543 78.7285 94.6025C78.7625 94.6138 78.797 94.627 78.833 94.6387C79.358 94.8089 80.1025 95.0188 80.9824 95.1807C82.7335 95.5027 85.068 95.6414 87.2939 94.8457L87.2959 94.8447C89.4449 94.0649 91.2114 92.8505 92.4355 91.8379C92.9536 91.4093 93.3762 91.0138 93.6934 90.7002Z" fill="white" stroke="white"/>
<path d="M108.032 125.544C108.977 125.104 108.473 124.35 108.095 123.659C107.843 123.156 107.78 122.465 107.591 121.9C107.402 121.271 107.276 120.643 107.087 120.077C106.332 117.626 105.324 115.176 104.191 112.851C101.924 107.949 99.2157 103.173 97.1376 98.1459C96.0041 95.3809 94.9965 92.5531 94.4297 89.5996C94.3668 89.2854 93.863 89.1597 93.6111 89.4111C91.9108 91.422 89.5178 93.0558 87.0619 93.9356C84.291 94.941 80.9535 94.6268 78.2456 93.4957C77.9937 93.37 77.6159 93.6842 77.6788 93.9356C77.8678 98.5858 80.0718 102.733 82.087 106.755C83.0945 108.703 84.0391 110.651 84.7319 112.662C85.3616 114.61 85.8654 116.621 86.2432 118.632C86.684 120.831 87.0619 123.094 87.2508 125.356C87.2508 125.607 87.3767 125.733 87.6286 125.796C89.5178 126.613 91.6589 126.99 93.6741 127.241C98.46 127.807 103.372 127.241 107.906 125.607C108.473 125.419 108.221 124.476 107.654 124.727C103.183 126.361 98.3971 126.927 93.6741 126.298C91.7219 126.047 89.7067 125.67 87.8805 124.916C88.0065 125.042 88.1324 125.23 88.2584 125.356C87.8805 121.397 87.1878 117.438 86.0543 113.605C84.7948 109.394 82.5278 105.75 80.7645 101.791C79.631 99.277 78.7494 96.7005 78.6864 93.9356C78.4975 94.0612 78.3086 94.2498 78.1197 94.3755C80.9535 95.5066 84.5429 95.8836 87.4397 94.8153C90.0216 93.8727 92.6035 92.176 94.4297 90.0395C94.1779 89.9766 93.926 89.9138 93.6111 89.8509C95.5633 99.7797 101.672 108.2 105.261 117.564C105.765 118.883 106.206 120.203 106.584 121.585C106.773 122.214 106.898 122.905 107.087 123.533C107.15 123.785 107.213 123.973 107.339 124.162C107.402 124.287 107.78 124.665 107.591 124.727C106.961 124.979 107.465 125.796 108.032 125.544Z" fill="black"/>
<path d="M78.4323 94.187C78.2434 94.1242 78.1175 93.9356 78.1804 93.81C78.4323 93.1187 79.5659 91.2963 84.4148 89.9767C90.5232 88.28 93.294 88.4057 94.2386 89.4111C95.1203 90.3537 87.4375 97.0148 78.4323 94.187Z" fill="black"/>
<path d="M89.1445 90.8311C89.0437 90.9689 88.9005 91.1523 88.7021 91.3564C88.2404 91.8316 87.4935 92.4337 86.3682 92.9072C85.219 93.3777 84.381 93.3954 83.8535 93.3154C83.5952 93.2762 83.4055 93.212 83.2842 93.1611L82.542 89.4551L82.7217 88.9883L86.4619 87.6709L89.1445 90.8311Z" fill="white" stroke="white"/>
<path d="M79.8193 70.4966C80.0082 70.2453 79.0636 69.3027 77.3003 67.7317C76.4187 67.0404 75.4111 66.0978 74.4036 64.9667C73.8998 64.4011 73.459 63.7727 73.0811 63.0815C73.0182 62.893 72.8922 62.7044 72.8292 62.5787C72.8292 62.5159 72.8292 62.5159 72.8292 62.4531C72.8292 62.3902 72.8292 62.3274 72.8922 62.3274C72.9552 62.3274 72.9552 62.3274 73.0182 62.3902L73.1441 62.4531L73.333 62.5787C73.459 62.6416 73.6479 62.7673 73.7738 62.8301C74.4036 63.2071 75.0963 63.647 75.789 64.1498C77.1744 65.0924 78.7487 65.9721 80.3231 66.8519C80.575 66.9776 80.8269 67.1661 81.0787 67.2918L81.7714 67.7945C81.9604 67.983 82.1493 68.1715 82.3382 68.3601C82.5271 68.5486 82.716 68.7999 82.842 68.9885C83.2198 69.554 83.5347 70.1824 83.7236 70.8108C83.9125 71.5021 84.0385 72.1933 84.1644 72.8846C84.3534 74.3299 84.3534 75.7752 84.3534 77.1577C84.3534 77.849 84.3534 78.5402 84.3534 79.1686C84.3534 79.4828 84.3534 79.8599 84.4163 80.1741C84.4163 80.4883 84.4793 80.8653 84.5423 81.1795C84.7312 82.4992 85.0461 83.6303 85.4239 84.6986C86.1796 86.7723 87.0612 88.2176 87.8169 89.1602C88.5096 90.1028 89.0763 90.4799 89.2653 90.3542C89.3912 90.2285 89.1393 89.6629 88.6985 88.5947C88.2577 87.5264 87.628 86.0811 87.1242 84.133C86.8723 83.1904 86.6834 82.1221 86.6204 80.9281C86.6204 80.6139 86.5574 80.3626 86.5574 80.0484C86.5574 79.7342 86.5574 79.4828 86.5574 79.1058C86.5574 78.4774 86.6204 77.7861 86.6204 77.0949C86.6834 75.7124 86.6834 74.2042 86.5574 72.5704C86.4945 71.7534 86.3055 70.9365 86.1166 70.0567C85.8647 69.177 85.4869 68.3601 84.9201 67.5431C84.7312 67.2289 84.4163 66.9147 84.2274 66.6634C83.9755 66.412 83.6606 66.1606 83.4088 65.8464C83.0939 65.5951 82.842 65.4066 82.5271 65.1552C82.2123 64.9667 81.8974 64.7782 81.5825 64.5896C79.9452 63.7099 78.4968 62.893 77.1114 62.0132C76.4187 61.5733 75.726 61.1334 74.9703 60.7564C74.7814 60.6307 74.5925 60.5679 74.4036 60.4422L74.0887 60.3165L73.6479 60.128C73.459 60.0651 73.2701 60.0651 73.1441 60.0023L72.8922 59.9395C72.8292 59.9395 72.7033 59.9395 72.6403 59.9395C72.3255 59.9395 72.0106 60.0023 71.6957 60.0651C71.3179 60.1908 71.003 60.505 70.8141 60.8821C70.6252 61.2591 70.5622 61.6361 70.6252 62.0132C70.6882 62.3902 70.8141 62.8301 71.003 63.2072C71.129 63.5214 71.2549 63.7099 71.3809 63.8984C71.9476 64.7782 72.5144 65.4694 73.1441 66.035C74.3406 67.2289 75.5371 68.1087 76.6076 68.6743C78.4968 70.0568 79.6304 70.6852 79.8193 70.4966Z" fill="black"/>
<path d="M76.1033 81.5565C75.4106 82.0592 76.9219 84.5728 79.126 87.652C79.2519 87.7777 79.3779 87.9662 79.4409 88.0919C79.5668 88.2176 79.6928 88.4061 79.7557 88.5318C80.0706 88.9088 80.3225 89.2859 80.5744 89.6001C80.7003 89.7886 80.8263 89.9143 81.0152 90.1028C81.0152 90.1028 81.0782 90.1028 81.0782 90.2913C81.2041 90.5427 81.2671 90.8569 81.393 91.1711C81.456 91.4853 81.582 91.7995 81.6449 92.0508C81.9598 93.182 82.2117 93.8732 82.6525 93.8732C83.0303 93.8732 83.3452 93.1191 83.4082 91.8623C83.4082 91.5481 83.4711 91.2339 83.4082 90.794C83.4082 90.417 83.3452 89.9771 83.2193 89.4744C83.1563 89.223 83.0303 88.9088 82.7784 88.5318C82.6525 88.3433 82.5265 88.1547 82.4006 88.0291C82.1487 87.652 81.8968 87.275 81.6449 86.8979C81.519 86.7722 81.393 86.5837 81.3301 86.458C81.2041 86.3324 81.1411 86.1438 81.0152 86.0182C78.7482 83.1275 76.733 81.1166 76.1033 81.5565Z" fill="black"/>
<path d="M70.2473 74.8947C70.0584 74.769 69.8694 74.8318 69.5546 75.146C69.3027 75.3974 69.0508 75.963 69.0508 76.717C69.0508 77.4711 69.3656 78.2881 69.8694 78.9165C70.3732 79.6077 71.0659 80.2361 71.6957 80.7388C71.8846 80.8645 72.0735 80.9902 72.2624 81.1159L72.4513 81.1787L72.7032 81.2415C72.8292 81.3044 73.0181 81.3672 73.144 81.4301C73.5219 81.5557 73.8997 81.5557 74.2776 81.5557C74.6554 81.4929 74.9703 81.4301 75.2222 81.2415C75.7889 80.9273 76.1038 80.2989 76.1038 79.7334C76.1038 79.482 75.9778 79.1678 75.9149 78.8536C75.7889 78.5394 75.663 78.2881 75.537 78.0367C75.4111 77.7853 75.2851 77.6596 75.1592 77.534C75.0332 77.4083 74.9703 77.2826 74.8443 77.1569C73.9627 76.2772 73.144 76.1515 72.9551 76.4657C72.7662 76.7799 73.0811 77.3454 73.4589 78.1624C73.5219 78.2881 73.5219 78.3509 73.5849 78.4766C73.6478 78.6023 73.7108 78.7279 73.6478 78.7908C73.6478 78.9165 73.6478 78.9165 73.5849 78.9165C73.5219 78.9793 73.3959 78.9165 73.4589 78.8536H73.3959C73.333 78.7908 73.27 78.7908 73.144 78.6651C72.5143 78.2252 71.9476 77.7853 71.5697 77.3454C71.1289 76.9684 70.94 76.5914 70.7511 76.2772C70.6251 75.963 70.5621 75.6488 70.4992 75.3346C70.4992 75.2089 70.4362 74.9575 70.2473 74.8947Z" fill="black"/>
<path d="M74.5924 73.1353C74.9073 72.8839 74.4035 71.8156 73.207 70.1818C72.8921 69.8047 72.5773 69.3649 72.1365 68.925C71.9475 68.6736 71.6957 68.4851 71.4438 68.2337C71.3178 68.108 71.1919 67.9824 71.0029 67.8567C70.814 67.6682 70.4992 67.6053 70.2473 67.4168C69.6805 67.2283 68.9878 67.2283 68.484 67.6053C68.2321 67.7938 67.9802 67.9824 67.7913 68.2966C67.7283 68.4223 67.6024 68.5479 67.5394 68.7365C67.4764 68.925 67.4135 68.9878 67.4135 69.1135C67.2875 69.5534 67.1616 69.9304 67.0986 70.3703C67.0986 70.5588 67.0356 70.7473 67.0356 70.9987C67.0356 71.1872 66.9727 71.4386 66.9727 71.6271C66.9727 71.8785 66.9727 72.1298 67.0356 72.3812C67.0986 72.5069 67.0986 72.6326 67.1616 72.7582L67.2875 73.0724C67.5394 73.5123 67.7913 73.8265 68.0432 74.0779C68.2951 74.3292 68.547 74.5806 68.7989 74.832C69.3656 75.3347 69.9324 75.7746 70.4362 76.2145C70.5621 76.3401 70.6881 76.403 70.814 76.5287L71.0029 76.7172C71.0659 76.78 71.1919 76.8429 71.2548 76.9057C71.5697 77.1571 71.8846 77.3456 72.2624 77.4713C72.8921 77.7855 73.5849 78.0368 74.3405 78.0997C74.5294 78.0997 74.7184 78.1625 74.9073 78.0997C75.0962 78.0997 75.2851 78.0368 75.537 78.0368C75.9778 77.9111 76.4187 77.6598 76.7335 77.3456C76.8595 77.0942 77.0484 76.9057 77.1114 76.6543C77.1743 76.5287 77.1743 76.403 77.1743 76.2773C77.1743 76.1516 77.1743 76.0259 77.1743 75.9003C77.1743 75.6489 77.1114 75.3975 76.9854 75.209C76.9224 75.0205 76.8595 74.8948 76.7335 74.7691C76.4187 74.2664 76.1038 73.8894 75.7889 73.638C75.2222 73.1353 74.7813 72.9468 74.5924 73.1353C74.4665 73.261 74.5924 73.7008 74.8443 74.3292C74.9703 74.6434 75.1592 75.0205 75.2851 75.3975C75.2851 75.5232 75.3481 75.586 75.3481 75.7117C75.3481 75.7746 75.3481 75.8374 75.3481 75.8374C75.3481 75.9003 75.2851 76.0259 75.2222 76.0259C75.1592 76.0259 75.0962 76.0888 75.0332 76.0259C75.0332 76.0259 74.9703 76.0259 74.8443 76.0259C74.7813 76.0259 74.6554 76.0259 74.5924 75.9631C74.2146 75.8374 73.7108 75.6489 73.27 75.3975C73.0181 75.2718 72.8292 75.0833 72.6403 74.9576C72.5773 74.8948 72.5143 74.8948 72.5143 74.832L72.3254 74.7063C72.1994 74.5806 72.0735 74.4549 71.9475 74.3292C71.4438 73.8894 70.877 73.4495 70.4362 73.0096C70.1843 72.8211 69.9954 72.5697 69.8065 72.3812C69.6175 72.1927 69.4916 72.0041 69.3656 71.8156C69.4286 71.1244 69.4916 70.3703 69.6805 69.8676C69.6805 69.8047 69.7435 69.7419 69.7435 69.7419C69.7435 69.7419 69.7435 69.7419 69.7435 69.6791C69.7435 69.6162 69.8065 69.6162 69.8065 69.6162C69.8065 69.6162 69.8065 69.6162 69.8694 69.6162C69.9954 69.6791 70.0583 69.7419 70.1843 69.8047C70.3732 69.9304 70.6251 70.1189 70.814 70.3075C71.2548 70.6217 71.6327 70.9987 72.0105 71.3129C73.3959 72.6325 74.3405 73.3238 74.5924 73.1353Z" fill="black"/>
<path d="M76.4205 68.9888C76.7354 68.7374 76.2316 67.6691 75.0351 66.0353C74.7203 65.6582 74.4054 65.2184 73.9646 64.7785C73.7757 64.5271 73.5238 64.3386 73.2719 64.0872C73.1459 63.9616 73.02 63.8359 72.8311 63.7102C72.6422 63.5217 72.3273 63.4588 72.0754 63.2703C71.5086 63.0818 70.8159 63.0818 70.3121 63.4588C70.0602 63.6474 69.8084 63.8359 69.6194 64.1501C69.5565 64.2758 69.4305 64.4014 69.3675 64.59C69.3046 64.7785 69.2416 64.8413 69.2416 64.967C69.1156 65.4069 68.9897 65.7839 68.9267 66.2238C68.9267 66.4123 68.8638 66.6009 68.8638 66.8522C68.8638 67.0407 68.8008 67.2921 68.8008 67.4806C68.8008 67.732 68.8008 67.9833 68.8638 68.2347C68.9267 68.3604 68.9267 68.4861 68.9897 68.6118L69.1156 68.926C69.3675 69.3658 69.6194 69.68 69.8713 69.9314C70.1232 70.1828 70.3751 70.4341 70.627 70.6855C71.2567 71.251 71.9494 71.7538 72.5162 72.2565C72.7051 72.3822 72.8311 72.5079 72.957 72.6335C73.1459 72.7592 73.3349 72.8849 73.5238 73.0106C73.9016 73.2619 74.2795 73.3876 74.6573 73.5761C75.413 73.8903 76.2316 74.0789 77.1133 73.9532C78.2468 73.8275 79.0654 72.8849 79.0025 72.0051C79.0025 71.8166 78.9395 71.5652 78.8765 71.3767C78.8135 71.1882 78.7506 70.9997 78.6876 70.874C78.5616 70.6226 78.4357 70.3713 78.2468 70.2456C77.9319 69.8686 77.68 69.6172 77.4281 69.4287C76.9243 68.9259 76.5465 68.8003 76.4205 68.9888C76.2946 69.1145 76.3576 69.4287 76.6095 69.9942C76.7354 70.2456 76.8614 70.5598 76.9873 70.874C77.1133 71.1882 77.2392 71.6281 77.1762 71.6909C77.1133 71.8166 76.9243 71.8794 76.8614 71.8794C76.5465 71.8794 76.0427 71.7538 75.476 71.4396C75.2241 71.3139 74.9722 71.1254 74.7203 70.9997C74.5943 70.9368 74.4684 70.8112 74.3424 70.7483C74.2165 70.6226 74.0905 70.497 73.9646 70.3713C73.3978 69.8686 72.7681 69.3658 72.2013 68.8631C71.9494 68.6746 71.7605 68.4232 71.5716 68.2347C71.3827 68.0462 71.2567 67.8577 71.1308 67.6691C71.1938 66.9779 71.2567 66.2238 71.4457 65.7211C71.4457 65.6582 71.5086 65.5954 71.5086 65.5954C71.5086 65.5954 71.5086 65.5954 71.5086 65.5326C71.5086 65.4697 71.5716 65.4697 71.5716 65.4697C71.5716 65.4697 71.5716 65.4697 71.6346 65.4697C71.7605 65.5326 71.8235 65.5954 71.9494 65.6582C72.1384 65.7839 72.3903 65.9724 72.5792 66.161C73.02 66.4752 73.3978 66.8522 73.7757 67.1664C75.2241 68.4232 76.1687 69.1773 76.4205 68.9888Z" fill="black"/>
<path d="M68.4844 49.6332L73.2074 61.6357L77.3006 63.5837L73.8371 48.125C73.8371 48.125 72.3257 49.7589 68.4844 49.6332Z" fill="black"/>
<path d="M75.4102 67.166L80.7629 81.0537L81.3296 81.3051L79.2515 70.0567L75.4102 67.166Z" fill="black"/>
<path d="M145.375 72.1297L159.922 70.1816C159.922 70.1816 162.189 83.818 161.118 88.531C151.609 90.2906 144.367 91.2332 144.367 91.2332C144.367 91.2332 148.838 85.8289 146.067 74.2663" fill="#E2E2E2"/>
<path d="M146.132 74.2661C146.069 74.2661 146.069 74.706 146.195 75.5229C146.258 75.9 146.321 76.4027 146.384 77.0311C146.446 77.5966 146.572 78.2879 146.572 79.042C146.698 80.5501 146.698 82.3725 146.384 84.4462C146.195 85.4517 146.006 86.5828 145.628 87.6511C145.439 88.2167 145.25 88.7194 144.998 89.285C144.935 89.4106 144.872 89.5363 144.809 89.662L144.683 89.8505V89.9134C144.683 89.9762 144.62 89.9762 144.62 90.039L144.431 90.2276L144.179 90.6046C144.116 90.7303 143.991 90.856 143.865 91.0445C143.613 91.3587 143.424 91.6101 143.172 91.9243C143.55 91.8614 144.116 91.7986 144.557 91.7357C144.998 91.6729 145.439 91.6101 145.943 91.5472C146.446 91.4844 147.013 91.4215 147.517 91.2958C148.588 91.1073 149.721 90.9816 150.855 90.7931C153.122 90.4161 155.515 90.039 157.971 89.5992C158.852 89.4106 159.734 89.285 160.553 89.1593C160.678 89.1593 161.245 89.0336 161.623 88.9708L161.812 87.9025C161.875 87.4626 161.875 87.0227 161.938 86.52C162.064 84.2577 161.875 82.1212 161.749 80.0474C161.56 77.9737 161.308 76.0256 161.056 74.1404C160.93 73.1978 160.804 72.3181 160.678 71.4383C160.615 70.8727 160.49 70.3072 160.427 69.7416V69.6159V69.5531C160.427 69.5531 160.427 69.4902 160.364 69.4902L160.049 69.5531L159.482 69.6159C159.23 69.6788 158.978 69.6788 158.789 69.7416C157.152 69.993 155.641 70.1815 154.255 70.4328C148.714 71.2498 145.376 71.8782 145.376 72.0667C145.376 72.2552 148.776 71.941 154.318 71.3126C155.704 71.1241 157.215 70.9356 158.852 70.747C159.041 70.747 159.23 70.6842 159.419 70.6842H159.482V70.747V70.9356C159.482 71.1241 159.545 71.3754 159.545 71.564C159.671 72.4437 159.797 73.3235 159.923 74.2661C160.175 76.0885 160.364 78.0994 160.553 80.1103C160.678 82.1211 160.867 84.2577 160.741 86.3943C160.678 86.8342 160.678 87.2741 160.615 87.6511C160.553 87.9653 160.615 87.8396 160.553 87.8396C160.553 87.8396 160.615 87.8396 160.364 87.9025C159.482 88.0282 158.663 88.2167 157.782 88.3424C155.326 88.7822 152.933 89.1593 150.666 89.5363C148.839 89.8505 147.076 90.1019 145.439 90.3532C145.439 90.3532 145.502 90.2904 145.502 90.2276L145.628 89.9134C145.691 89.7877 145.754 89.5992 145.817 89.4735C146.069 88.9079 146.321 88.2795 146.509 87.7139C146.887 86.52 147.076 85.3889 147.202 84.3206C147.454 82.184 147.391 80.2988 147.139 78.7278C147.076 77.9737 146.887 77.2824 146.824 76.7169C146.698 76.1513 146.572 75.6486 146.446 75.2715C146.321 74.6431 146.195 74.2661 146.132 74.2661Z" fill="black"/>
<path d="M99.7192 67.7946C99.7192 67.7946 103.75 57.9287 118.422 56.6719C128.498 68.1088 128.498 68.1088 128.498 68.1088C128.498 68.1088 110.488 74.2043 112.314 80.7397C99.8452 73.5759 99.6562 69.994 99.6562 69.994" fill="#E2E2E2"/>
<path d="M99.7187 69.931C99.6557 69.931 99.6557 70.4338 100.034 71.125C100.411 71.8791 101.104 72.8217 102.175 73.89C103.245 74.9583 104.631 76.1522 106.331 77.3462C107.213 77.9746 108.094 78.603 109.102 79.2314C109.606 79.5456 110.109 79.8598 110.613 80.174C110.928 80.3625 112.25 81.1795 113.195 81.6822C113.132 81.368 113.069 80.9909 113.006 80.6767C112.943 80.3625 112.943 80.0483 112.88 79.7341V79.4828C112.88 79.4199 112.88 79.4199 112.88 79.3571L112.943 79.1686C112.943 79.0429 113.006 78.8544 113.069 78.7287C113.258 78.1631 113.573 77.5976 114.014 77.032C114.832 75.9637 115.966 75.0211 117.225 74.2042C119.744 72.5075 122.641 71.0622 125.79 69.8054C126.23 69.6168 126.734 69.4283 127.175 69.2398L127.868 68.9884L129.064 68.5485L129.694 68.2972L127.364 65.6579C125.727 63.7727 124.089 61.9503 122.515 60.1908C121.759 59.311 121.004 58.4941 120.248 57.6143C119.87 57.1744 119.492 56.7346 119.114 56.3575L118.863 56.0433L118.8 55.9805H118.737H118.548L117.981 56.0433C117.729 56.1061 117.414 56.1062 117.162 56.169C115.021 56.4204 113.006 56.9859 111.18 57.5515C110.739 57.74 110.298 57.9285 109.857 58.117C109.669 58.1799 109.417 58.3056 109.228 58.3684C109.039 58.4941 108.85 58.5569 108.598 58.6826C108.22 58.8711 107.842 59.0596 107.464 59.311C107.087 59.5624 106.772 59.7509 106.394 60.0022C106.205 60.1279 106.079 60.1908 105.89 60.3165C105.701 60.4421 105.575 60.5678 105.449 60.6935C105.134 60.9449 104.82 61.1334 104.568 61.3847C104.064 61.8875 103.497 62.3273 103.056 62.7672C102.175 63.647 101.482 64.5896 100.978 65.2808C100.034 66.789 99.7187 67.7316 99.7817 67.7945C99.8447 67.8573 100.285 66.9775 101.356 65.595C101.923 64.9038 102.553 64.0869 103.497 63.27C103.938 62.8301 104.442 62.453 105.008 62.0131C105.323 61.8246 105.575 61.5733 105.89 61.3847C106.016 61.2591 106.205 61.1962 106.331 61.0705C106.52 60.9449 106.646 60.882 106.835 60.7563C107.15 60.5678 107.527 60.3793 107.842 60.1279C108.22 59.9394 108.598 59.7509 108.976 59.5624C109.165 59.4995 109.354 59.3739 109.543 59.311C109.731 59.2482 109.92 59.1225 110.172 59.0596C110.613 58.8711 110.991 58.7454 111.432 58.5569C113.195 57.9914 115.084 57.4886 117.225 57.3001C117.477 57.3001 117.729 57.2373 117.981 57.1744H118.233C118.611 57.5515 118.926 57.9914 119.303 58.3684C120.059 59.1853 120.815 60.0651 121.57 60.9449C123.082 62.7044 124.719 64.5268 126.356 66.412L127.238 67.4174L127.49 67.7316L127.301 67.7945L126.608 68.0458C126.168 68.2343 125.664 68.4229 125.223 68.6114C122.011 69.931 119.052 71.3764 116.47 73.1987C115.21 74.1413 113.951 75.0839 113.069 76.3407C112.628 76.9692 112.187 77.5976 111.999 78.3517C111.936 78.5402 111.873 78.7287 111.873 78.9172L111.81 79.2314C111.81 79.2943 111.81 79.3571 111.81 79.3571V79.4199V79.5456V79.6085C112.061 79.797 110.487 78.8544 109.606 78.2888C108.598 77.7232 107.716 77.0948 106.835 76.5293C105.134 75.3981 103.749 74.267 102.678 73.3244C101.608 72.319 100.852 71.502 100.411 70.8736C99.9076 70.3081 99.7817 69.931 99.7187 69.931Z" fill="black"/>
<path d="M125.789 26.5705C125.789 26.5705 137.565 31.7234 145.374 22.9258C147.704 29.524 153.749 31.2207 157.213 31.912C145.689 41.5265 140.84 45.2341 140.84 45.2341C140.84 45.2341 132.842 41.4009 127.112 29.9639" fill="#E2E2E2"/>
<path d="M127.05 29.9638C126.987 30.0267 127.302 30.9064 128.184 32.5403C129.002 34.1113 130.388 36.3736 132.529 38.8872C133.599 40.144 134.859 41.4636 136.37 42.7204C137.126 43.3488 137.945 43.9772 138.763 44.6056C139.204 44.9198 139.645 45.1712 140.149 45.4854L140.778 45.7996C140.904 45.9253 140.967 45.7368 141.093 45.6739L141.408 45.4226C141.66 45.234 141.849 45.0455 142.101 44.857C145.501 42.092 149.28 39.0757 153.247 35.8708C154.066 35.2424 154.821 34.5512 155.64 33.9228C156.081 33.5457 156.522 33.1687 157.026 32.7916C157.403 32.4774 157.844 32.1632 158.222 31.849L158.537 31.5977L158.6 31.5348C158.6 31.5348 158.6 31.5348 158.663 31.5348H158.6L158.411 31.472L157.655 31.2835L156.711 31.095L156.018 30.9064C155.703 30.8436 155.388 30.7808 155.136 30.6551C154.57 30.4666 153.94 30.278 153.436 30.0895C152.303 29.6496 151.295 29.0841 150.35 28.3928C149.406 27.7644 148.587 26.9475 147.957 26.0677C147.58 25.6278 147.328 25.188 147.013 24.7481C146.887 24.4967 146.761 24.2454 146.635 24.0568C146.572 23.9312 146.509 23.8055 146.446 23.6798L146.257 23.1771L145.942 22.4858L145.816 22.1088L145.753 21.9203L145.69 21.8574C145.69 21.8574 145.627 21.8574 145.627 21.9203C145.25 22.2973 144.872 22.6743 144.557 22.9886C144.368 23.1771 144.179 23.3656 143.99 23.5541C143.801 23.7426 143.612 23.9312 143.423 24.0568C143.045 24.371 142.668 24.6852 142.29 24.9366C141.912 25.188 141.471 25.4393 141.093 25.6907C139.456 26.5705 137.756 27.136 136.181 27.3245C134.607 27.5759 133.159 27.5759 131.899 27.5131C131.269 27.5131 130.703 27.3874 130.136 27.3245C129.632 27.1989 129.128 27.136 128.688 27.0732C126.924 26.6961 125.98 26.3819 125.98 26.5076C125.917 26.5705 126.798 27.0732 128.562 27.5759C129.002 27.7016 129.506 27.8273 130.01 27.9529C130.577 28.0158 131.144 28.2043 131.836 28.2043C133.159 28.3928 134.67 28.3928 136.307 28.2043C137.945 28.0158 139.771 27.5131 141.534 26.5705C141.975 26.3191 142.416 26.0677 142.857 25.8164C143.297 25.5022 143.675 25.188 144.116 24.8738C144.368 24.7481 144.557 24.5596 144.746 24.371C144.935 24.1825 145.124 23.994 145.313 23.8683L145.375 23.8055C145.375 23.8055 145.375 23.8683 145.438 23.8683L145.564 24.1197C145.627 24.2454 145.69 24.371 145.753 24.4967C145.879 24.7481 146.005 24.9994 146.131 25.2508C146.446 25.7535 146.761 26.2563 147.139 26.6961C147.894 27.6387 148.776 28.5185 149.784 29.2726C150.791 30.0267 151.925 30.5922 153.121 31.095C153.688 31.3463 154.318 31.5348 154.947 31.7234C155.262 31.849 155.577 31.9119 155.892 31.9747L156.144 32.0376L155.136 32.8545C154.318 33.4829 153.562 34.1113 152.743 34.8025C148.776 38.0702 145.061 41.0866 141.66 43.8516C141.471 44.0401 141.282 44.1658 141.093 44.3543C141.03 44.4171 141.093 44.4171 140.967 44.3543C140.527 44.1029 140.086 43.8516 139.645 43.5374C138.826 42.9718 138.008 42.4062 137.315 41.7778C135.867 40.5839 134.607 39.327 133.474 38.1331C131.332 35.7451 129.884 33.6086 128.876 32.1004C127.617 30.7808 127.113 29.901 127.05 29.9638Z" fill="black"/>
<path d="M27.2993 71.5016L38.6975 68.6738C38.6975 68.6738 29.8182 85.515 27.2993 77.9741C24.7804 70.4333 24.9063 67.6055 24.9063 67.6055L4.62891 68.1082C4.62891 68.1082 5.19567 83.4412 15.3973 82.4358C25.599 81.4304 27.3623 80.3621 27.3623 80.3621" fill="#E2E2E2"/>
<path d="M27.3008 80.3626C27.2378 80.2997 26.1672 80.6768 24.0891 80.991C22.011 81.3052 18.9253 81.6822 15.1469 81.9964C13.3207 82.1221 11.2426 81.6194 9.66824 80.1741C8.09391 78.7287 6.96039 76.5293 6.26768 74.1414C5.88984 72.9474 5.63795 71.6906 5.44903 70.371C5.38606 70.0568 5.38606 69.6797 5.32308 69.3655C5.26011 69.0513 5.26011 68.5486 5.26011 68.6743H5.38606C5.7639 68.6743 6.07876 68.6743 6.4566 68.6743C9.2904 68.6114 12.2501 68.5486 15.2729 68.4229C16.4694 68.3601 17.7288 68.3601 18.9253 68.2972C20.1218 68.2344 21.3183 68.2344 22.5778 68.1715C23.0186 68.1715 23.3964 68.1716 23.8372 68.1087C24.0262 68.1087 24.2151 68.1087 24.467 68.1087L24.5299 68.6743C24.5929 69.0513 24.6559 69.4284 24.6559 69.7426C24.7818 70.4338 24.9078 71.1879 25.0967 71.8163C25.4116 73.1988 25.7894 74.5184 26.1672 75.8381C26.3562 76.4665 26.5451 77.0949 26.797 77.7233C26.9859 78.3517 27.2378 79.0429 27.8045 79.6713C28.0564 79.9855 28.4343 80.2369 28.8751 80.3626C29.064 80.4254 29.3159 80.4254 29.5048 80.4254C29.6937 80.3626 29.8827 80.3626 30.0716 80.2997C30.8273 80.0484 31.394 79.6713 31.8348 79.2943C32.8424 78.4774 33.5981 77.5348 34.3538 76.5922C35.0465 75.6496 35.7392 74.7698 36.3059 73.8272C36.8727 72.9474 37.4395 72.0048 37.9432 71.1879C38.1951 70.6852 38.447 70.2453 38.6989 69.8054C38.8878 69.4284 39.0768 69.1142 39.2657 68.7371L39.5176 68.2344L39.6435 67.983C39.5806 67.983 39.4546 68.0459 39.3916 68.0459C39.0138 68.1087 38.636 68.2344 38.3211 68.2972C38.0062 68.3601 37.6284 68.4858 37.3135 68.5486C36.8727 68.6743 36.4949 68.7371 36.117 68.8628C35.3613 69.0513 34.6057 69.3027 33.913 69.4284C32.5275 69.8054 31.394 70.1196 30.3865 70.4338C28.4973 70.9994 27.4267 71.3136 27.4897 71.4393C27.4897 71.5021 28.5602 71.3136 30.5124 70.9365C31.52 70.748 32.6535 70.4338 34.1019 70.1196C34.7946 69.9311 35.5503 69.8054 36.3059 69.6169C36.6838 69.554 37.1246 69.4284 37.5024 69.3027C37.6284 69.3027 37.8173 69.2398 37.9432 69.177H38.0062V69.2398L37.9432 69.3655L37.8173 69.554C37.6284 69.9311 37.3765 70.3081 37.1246 70.6852C36.6208 71.5021 36.0541 72.3819 35.4873 73.2616C34.9205 74.1414 34.2278 75.0212 33.5351 75.9009C32.8424 76.7807 32.0867 77.6605 31.1421 78.3517C30.7013 78.7287 30.1975 79.0429 29.7567 79.1686C29.2529 79.2943 28.9381 79.2315 28.5602 78.8544C28.3713 78.6659 28.2454 78.4145 28.1194 78.1632C27.9935 77.9118 27.9305 77.6604 27.8045 77.2834C27.6156 76.655 27.4267 76.0266 27.2378 75.3982C26.86 74.1414 26.4821 72.8217 26.1672 71.5021C26.0413 70.8108 25.8524 70.1824 25.7894 69.4912C25.7264 69.177 25.6635 68.8 25.6635 68.4858C25.6635 68.2972 25.6005 68.1716 25.6005 67.9202C25.6005 67.5431 25.6005 67.1661 25.6005 66.7891C24.5929 66.7891 23.5853 66.8519 22.5148 66.8519C21.3183 66.9147 20.0588 66.9147 18.8623 66.9776C17.6658 67.0404 16.4694 67.0404 15.2099 67.1033C12.1872 67.1661 9.22743 67.2918 6.39363 67.3546C6.01579 67.3546 5.70092 67.3546 5.32308 67.4175H4.88227H4.37848H4.12659H4.00064C3.93767 67.4175 4.00064 67.4803 4.00064 67.5431V68.0459C4.06362 68.8628 4.06362 68.9885 4.12659 69.3655C4.18956 69.7426 4.18956 70.0568 4.25254 70.371C4.44146 71.7535 4.75632 73.0731 5.13416 74.3299C5.88984 76.8435 7.08634 79.1686 8.91256 80.8025C9.79419 81.6194 10.8647 82.185 11.9353 82.4992C13.0058 82.8134 14.0764 82.8762 15.0839 82.7505C18.9253 82.3735 22.011 81.8708 24.0891 81.368C26.2932 81.0538 27.3637 80.4883 27.3008 80.3626Z" fill="black"/>
<path d="M154.003 75.0821C154.003 74.8308 152.869 74.7051 151.421 74.7051C151.358 74.7051 151.295 74.7051 151.232 74.7051C151.169 74.7051 151.106 74.7051 151.043 74.7051C149.594 74.7051 148.461 74.8308 148.461 75.0821C148.461 75.3335 149.594 75.3963 151.043 75.4592C151.106 75.4592 151.169 75.4592 151.232 75.4592C151.295 75.4592 151.358 75.4592 151.421 75.4592C152.869 75.3963 154.003 75.2706 154.003 75.0821Z" fill="black"/>
<path d="M157.465 77.4708C157.402 77.2195 155.891 77.4708 153.875 77.5965C153.75 77.5965 153.687 77.5965 153.561 77.5965C153.435 77.5965 153.372 77.5965 153.246 77.5965C151.231 77.7222 149.719 77.6594 149.656 77.9107C149.656 78.0992 151.231 78.4134 153.246 78.3506C153.372 78.3506 153.435 78.3506 153.561 78.3506C153.687 78.3506 153.75 78.3506 153.875 78.3506C156.017 78.1621 157.528 77.6594 157.465 77.4708Z" fill="black"/>
<path d="M119.996 62.2644C120.185 62.0759 119.744 61.5103 119.115 60.8819C119.052 60.8819 119.052 60.8191 118.989 60.8191L118.926 60.7562C118.296 60.1278 117.729 59.7508 117.54 59.9393C117.351 60.1278 117.792 60.6306 118.422 61.3218C118.485 61.3218 118.485 61.3847 118.548 61.3847L118.611 61.4475C119.24 62.0131 119.87 62.4529 119.996 62.2644Z" fill="black"/>
<path d="M120.562 66.5369C120.751 66.3484 119.807 65.1544 118.484 63.5834C118.421 63.5206 118.358 63.4578 118.295 63.3321C118.232 63.2692 118.169 63.2064 118.106 63.0807C116.784 61.5725 115.65 60.4414 115.462 60.6299C115.273 60.7556 116.217 62.0124 117.54 63.5834C117.603 63.6463 117.666 63.7091 117.729 63.8348C117.792 63.8976 117.855 63.9605 117.918 64.0862C119.24 65.5943 120.373 66.6626 120.562 66.5369Z" fill="black"/>
<path d="M104.758 69.7423C105.387 69.2396 105.324 68.6112 104.946 68.0456L104.883 67.9828L104.821 67.9199C104.38 67.4172 103.75 67.1658 103.12 67.6686C102.553 68.1084 102.553 68.7997 102.931 69.3652L102.994 69.4281L103.057 69.4909C103.561 69.9936 104.191 70.1822 104.758 69.7423Z" fill="black"/>
<path d="M15.2716 71.8144C15.2087 71.5631 13.7603 71.6888 11.8081 71.7516C11.6822 71.7516 11.6192 71.7516 11.4932 71.7516C11.3673 71.7516 11.3043 71.7516 11.1784 71.7516C9.2262 71.8773 7.71484 71.8773 7.71484 72.1286C7.71484 72.38 9.2262 72.5057 11.1784 72.4428C11.3043 72.4428 11.3673 72.4428 11.4932 72.4428C11.6192 72.4428 11.6822 72.4428 11.8081 72.4428C13.8233 72.3172 15.2716 72.003 15.2716 71.8144Z" fill="black"/>
<path d="M19.807 74.2028C19.7441 73.9515 17.6659 74.3285 14.8951 74.517C14.7692 74.517 14.6432 74.517 14.4543 74.517C14.3283 74.517 14.2024 74.517 14.0135 74.517C11.2427 74.7056 9.10156 74.5799 9.10156 74.8312C9.10156 75.0198 11.2427 75.3968 14.0765 75.2711C14.2024 75.2711 14.3283 75.2711 14.5173 75.2711C14.6432 75.2711 14.7692 75.2711 14.9581 75.2711C17.7289 75.0198 19.87 74.3914 19.807 74.2028Z" fill="black"/>
<path d="M30.4492 72.8209C30.4492 73.6379 30.7011 73.952 31.079 74.0149H31.1419H31.2049C31.5827 73.952 31.8346 73.6379 31.8346 72.8209C31.8346 72.0668 31.5827 71.6898 31.2049 71.627H31.1419H31.079C30.7641 71.6898 30.4492 72.0668 30.4492 72.8209Z" fill="black"/>
<path d="M150.916 31.4095C150.916 31.1581 149.341 31.0324 147.515 30.0898C147.452 30.027 147.326 30.027 147.263 29.9641L147.011 29.8385C145.248 28.8958 144.177 27.639 143.989 27.8276C143.8 27.9532 144.744 29.3986 146.633 30.4669C146.759 30.5297 146.822 30.5925 146.948 30.5925C147.074 30.6554 147.137 30.7182 147.263 30.7182C149.215 31.6608 150.979 31.598 150.916 31.4095Z" fill="black"/>
<path d="M146.759 33.1675C146.822 32.9161 145.563 32.4763 144.303 31.408L144.114 31.2194L143.925 31.0309C142.666 29.8998 141.973 28.7687 141.784 28.8944C141.595 28.9572 142.099 30.3397 143.485 31.5965L143.673 31.785L143.862 31.9735C145.311 33.1047 146.759 33.4189 146.759 33.1675Z" fill="black"/>
<path d="M89.5 5.19397C89.5 6.01089 90.1297 6.32509 90.8854 6.38794C90.9484 6.38794 90.9484 6.38794 91.0114 6.38794C91.0743 6.38794 91.0743 6.38794 91.1373 6.38794C91.893 6.32509 92.5227 6.01089 92.5227 5.19397C92.5227 4.43988 91.893 4.06284 91.1373 4C91.0743 4 91.0743 4 91.0114 4C90.9484 4 90.9484 4 90.8854 4C90.1297 4.06284 89.5 4.43988 89.5 5.19397Z" fill="black"/>
<path d="M48.8371 70.7468C49.6558 70.7468 49.9706 70.1184 50.0336 69.3643C50.0336 69.3015 50.0336 69.3015 50.0336 69.2386C50.0336 69.1758 50.0336 69.1758 50.0336 69.113C49.9706 68.3589 49.6558 67.7305 48.8371 67.7305C48.0814 67.7305 47.7036 68.3589 47.6406 69.113C47.6406 69.1758 47.6406 69.1758 47.6406 69.2386C47.6406 69.3015 47.6406 69.3015 47.6406 69.3643C47.7036 70.1184 48.0814 70.7468 48.8371 70.7468Z" fill="black"/>
<path d="M27.4258 99.5904C27.4258 100.407 28.8742 100.722 30.7004 100.784C30.7634 100.784 30.8893 100.784 30.9523 100.784C31.0153 100.784 31.1412 100.784 31.2042 100.784C33.0934 100.722 34.4788 100.407 34.4788 99.5904C34.4788 98.8364 33.0304 98.4593 31.2042 98.3965C31.1412 98.3965 31.0153 98.3965 30.9523 98.3965C30.8893 98.3965 30.7634 98.3965 30.7004 98.3965C28.8742 98.4593 27.4258 98.8364 27.4258 99.5904Z" fill="black"/>
</svg>
